<?xml version="1.0" encoding="UTF-8" standalone="no" ?>
<!DOCTYPE svg PUBLIC "-//W3C//DTD SVG 1.1//EN" "http://www.w3.org/Graphics/SVG/1.1/DTD/svg11.dtd">
<svg xmlns="http://www.w3.org/2000/svg" xmlns:xlink="http://www.w3.org/1999/xlink" version="1.1" width="373" height="103" viewBox="0 0 373 103" xml:space="preserve">
<desc>Created with Fabric.js 5.2.4</desc>
<defs>
</defs>
<g transform="matrix(1 0 0 1 186.5 51.5)" id="a358886f-0612-46da-976e-9df85a283de4"  >
<rect style="stroke: none; stroke-width: 1; stroke-dasharray: none; stroke-linecap: butt; stroke-dashoffset: 0; stroke-linejoin: miter; stroke-miterlimit: 4; fill: rgb(255,255,255); fill-rule: nonzero; opacity: 1; visibility: hidden;" vector-effect="non-scaling-stroke"  x="-186.5" y="-51.5" rx="0" ry="0" width="373" height="103" />
</g>
<g transform="matrix(Infinity NaN NaN Infinity 0 0)" id="aba4333c-ca57-42ca-ae39-08d73f397d28"  >
</g>
<g transform="matrix(1 0 0 1 186.5 51.5)"  >
<g style="" vector-effect="non-scaling-stroke"   >
		<g transform="matrix(1 0 0 1 130.54 -0.12)"  >
<path style="stroke: none; stroke-width: 1; stroke-dasharray: none; stroke-linecap: butt; stroke-dashoffset: 0; stroke-linejoin: miter; stroke-miterlimit: 4; fill: rgb(149,185,160); fill-rule: nonzero; opacity: 1;" vector-effect="non-scaling-stroke"  transform=" translate(-316.35, -50.21)" d="M 362.3 64.8 C 362.40000000000003 64.7 362.40000000000003 64.39999999999999 362.3 64.3 C 362.3 64.2 362.2 64.2 362.2 64.1 C 362.2 64.1 362.3 64.1 362.3 63.99999999999999 C 362.8 63.699999999999996 362.40000000000003 62.79999999999999 361.90000000000003 63.099999999999994 C 361.8 63.199999999999996 361.70000000000005 63.199999999999996 361.6 63.199999999999996 C 356.8 57.8 341.6 60.9 335.90000000000003 61.599999999999994 C 321.00000000000006 63.3 306.6 68.6 295.00000000000006 78 C 292.30000000000007 79 289.6000000000001 80.2 287.1000000000001 81.5 C 286.9000000000001 81.6 286.7000000000001 81.6 286.50000000000006 81.7 C 294.30000000000007 74.9 301.70000000000005 67.60000000000001 309.1000000000001 60.5 C 310.7000000000001 61.1 312.7000000000001 61.1 314.30000000000007 61 C 316.20000000000005 60.8 318.20000000000005 60.4 320.00000000000006 59.6 C 320.20000000000005 59.9 320.40000000000003 60.2 320.70000000000005 60.4 C 322.6 62 326.30000000000007 60 327.30000000000007 58.1 C 328.20000000000005 56.300000000000004 326.6000000000001 54.7 324.9000000000001 54.4 C 324.0000000000001 54.3 323.2000000000001 54.4 322.4000000000001 54.699999999999996 C 322.30000000000007 54.599999999999994 322.1000000000001 54.599999999999994 321.9000000000001 54.699999999999996 C 321.4000000000001 55.099999999999994 321.0000000000001 55.49999999999999 320.6000000000001 55.99999999999999 C 320.50000000000006 56.099999999999994 320.4000000000001 56.29999999999999 320.30000000000007 56.39999999999999 C 319.9000000000001 57.19999999999999 319.6000000000001 57.99999999999999 319.80000000000007 58.79999999999999 C 316.70000000000005 60.19999999999999 313.4000000000001 59.99999999999999 310.1000000000001 59.49999999999999 C 311.1000000000001 58.49999999999999 312.1000000000001 57.599999999999994 313.1000000000001 56.599999999999994 C 316.2000000000001 53.699999999999996 318.9000000000001 50.599999999999994 321.50000000000006 47.3 C 321.40000000000003 47.599999999999994 321.6000000000001 48.199999999999996 322.1000000000001 48 C 322.7000000000001 47.7 323.30000000000007 47.6 323.9000000000001 47.4 C 326.0000000000001 47.3 328.2000000000001 46.9 330.4000000000001 46.4 C 330.30000000000007 49 331.80000000000007 51.9 334.5000000000001 52.4 C 334.8000000000001 52.5 334.8000000000001 52.1 334.7000000000001 52 C 334.1000000000001 51.1 333.2000000000001 50.6 332.5000000000001 49.8 C 331.60000000000014 48.8 331.10000000000014 47.599999999999994 331.0000000000001 46.3 C 332.3000000000001 46 333.60000000000014 45.699999999999996 334.9000000000001 45.3 C 335.80000000000007 47 339.2000000000001 47.9 341.0000000000001 47.5 C 341.0000000000001 47.6 341.0000000000001 47.7 341.10000000000014 47.7 C 341.10000000000014 48.2 341.20000000000016 48.7 341.40000000000015 49.1 C 341.50000000000017 49.6 341.70000000000016 50.2 342.10000000000014 50.7 C 343.40000000000015 52.400000000000006 346.0000000000001 52.800000000000004 348.0000000000001 52.400000000000006 C 350.0000000000001 52.00000000000001 352.10000000000014 50.00000000000001 351.9000000000001 47.800000000000004 C 351.7000000000001 45.7 349.6000000000001 44.900000000000006 347.9000000000001 44.50000000000001 C 346.0000000000001 44.10000000000001 343.5000000000001 44.400000000000006 342.0000000000001 45.800000000000004 C 341.7000000000001 46.1 341.5000000000001 46.400000000000006 341.4000000000001 46.7 C 340.5000000000001 46.2 339.30000000000007 46.2 338.2000000000001 45.900000000000006 C 337.3000000000001 45.7 336.7000000000001 45.300000000000004 336.0000000000001 44.800000000000004 C 337.4000000000001 44.300000000000004 338.7000000000001 43.800000000000004 340.10000000000014 43.300000000000004 C 340.10000000000014 43.400000000000006 340.10000000000014 43.400000000000006 340.10000000000014 43.50000000000001 C 340.20000000000016 43.70000000000001 340.60000000000014 43.800000000000004 340.70000000000016 43.50000000000001 C 340.70000000000016 43.300000000000004 340.8000000000002 43.10000000000001 340.8000000000002 42.900000000000006 C 343.3000000000002 41.800000000000004 345.70000000000016 40.60000000000001 347.9000000000002 39.2 C 349.3000000000002 42.1 354.3000000000002 43.1 357.6000000000002 40.7 C 358.9000000000002 40.400000000000006 360.1000000000002 39.900000000000006 361.1000000000002 39.300000000000004 C 362.3000000000002 38.6 363.7000000000002 37.6 364.8000000000002 36.400000000000006 C 365.00000000000017 36.300000000000004 365.20000000000016 36.2 365.3000000000002 36.10000000000001 C 368.1000000000002 34.70000000000001 374.3000000000002 30.500000000000007 370.20000000000016 27.10000000000001 C 369.50000000000017 26.500000000000007 368.40000000000015 26.20000000000001 367.20000000000016 26.20000000000001 C 365.8000000000002 25.20000000000001 363.8000000000002 25.00000000000001 361.8000000000002 25.30000000000001 C 356.50000000000017 25.50000000000001 351.6000000000002 30.100000000000012 348.6000000000002 34.40000000000001 C 347.8000000000002 35.600000000000016 347.4000000000002 36.70000000000001 347.4000000000002 37.600000000000016 L 347.3000000000002 37.70000000000002 C 347.20000000000016 37.90000000000002 347.1000000000002 38.100000000000016 347.20000000000016 38.30000000000002 C 345.20000000000016 39.50000000000002 343.10000000000014 40.40000000000002 341.00000000000017 41.20000000000002 C 341.1000000000002 40.30000000000002 341.20000000000016 39.40000000000002 341.40000000000015 38.500000000000014 C 341.70000000000016 37.40000000000001 342.10000000000014 36.40000000000001 342.60000000000014 35.500000000000014 C 343.20000000000016 35.600000000000016 343.90000000000015 35.600000000000016 344.40000000000015 35.500000000000014 C 345.20000000000016 35.40000000000001 345.90000000000015 35.000000000000014 346.3000000000001 34.30000000000001 C 347.0000000000001 33.10000000000001 346.40000000000015 31.50000000000001 345.2000000000001 30.900000000000013 C 344.9000000000001 30.700000000000014 344.6000000000001 30.700000000000014 344.2000000000001 30.700000000000014 C 344.4000000000001 30.400000000000013 344.0000000000001 29.900000000000013 343.7000000000001 30.100000000000012 C 343.3000000000001 30.400000000000013 342.7000000000001 30.80000000000001 342.2000000000001 31.400000000000013 L 342.1000000000001 31.500000000000014 L 342.1000000000001 31.500000000000014 C 341.9000000000001 31.700000000000014 341.80000000000007 31.900000000000013 341.7000000000001 32.100000000000016 C 341.1000000000001 33.000000000000014 340.8000000000001 34.000000000000014 341.4000000000001 34.90000000000001 C 341.5000000000001 35.000000000000014 341.6000000000001 35.20000000000001 341.80000000000007 35.30000000000001 C 340.6000000000001 37.20000000000001 339.70000000000005 39.500000000000014 339.70000000000005 41.70000000000001 C 334.30000000000007 43.60000000000001 328.50000000000006 44.80000000000001 323.00000000000006 46.70000000000001 C 323.00000000000006 46.60000000000001 323.00000000000006 46.50000000000001 322.90000000000003 46.40000000000001 C 322.8 46.20000000000001 322.50000000000006 46.000000000000014 322.3 45.90000000000001 C 324.3 43.40000000000001 326.1 40.70000000000001 327.90000000000003 38.000000000000014 C 327.90000000000003 38.000000000000014 327.90000000000003 38.000000000000014 328.00000000000006 37.90000000000001 C 328.70000000000005 36.90000000000001 329.40000000000003 35.90000000000001 330.1000000000001 34.80000000000001 C 330.6000000000001 34.000000000000014 331.1000000000001 33.20000000000001 331.6000000000001 32.40000000000001 C 335.7000000000001 30.600000000000012 340.1000000000001 28.30000000000001 343.7000000000001 25.400000000000013 C 347.0000000000001 26.000000000000014 350.7000000000001 25.400000000000013 353.6000000000001 23.700000000000014 C 354.00000000000006 23.400000000000013 353.7000000000001 22.700000000000014 353.30000000000007 23.000000000000014 C 350.6000000000001 24.600000000000016 347.6000000000001 24.800000000000015 344.6000000000001 24.700000000000014 C 346.6000000000001 23.000000000000014 348.30000000000007 21.100000000000012 349.7000000000001 18.900000000000013 C 349.8000000000001 18.900000000000013 349.9000000000001 19.000000000000014 350.0000000000001 19.000000000000014 C 350.5000000000001 19.200000000000014 350.8000000000001 18.400000000000013 350.4000000000001 18.200000000000014 C 350.30000000000007 18.200000000000014 350.30000000000007 18.100000000000012 350.2000000000001 18.100000000000012 C 350.3000000000001 17.80000000000001 350.5000000000001 17.600000000000012 350.6000000000001 17.30000000000001 C 351.00000000000006 17.70000000000001 351.50000000000006 17.900000000000013 351.9000000000001 17.900000000000013 C 352.6000000000001 18.200000000000014 353.5000000000001 18.30000000000001 354.30000000000007 18.30000000000001 C 358.6000000000001 17.900000000000013 361.50000000000006 12.300000000000011 362.30000000000007 8.700000000000012 C 363.1000000000001 5.200000000000012 361.9000000000001 1.0000000000000115 357.80000000000007 0.9000000000000119 C 357.50000000000006 0.9000000000000119 357.20000000000005 0.9000000000000119 356.9000000000001 0.9000000000000119 C 355.80000000000007 0.9000000000000119 354.9000000000001 1.400000000000012 354.1000000000001 2.000000000000012 C 351.50000000000006 3.8000000000000123 349.50000000000006 7.200000000000012 348.4000000000001 9.500000000000012 C 347.1000000000001 12.300000000000011 346.4000000000001 16.400000000000013 349.1000000000001 18.400000000000013 C 347.30000000000007 20.900000000000013 345.00000000000006 22.80000000000001 342.6000000000001 24.400000000000013 L 342.6000000000001 24.400000000000013 C 342.4000000000001 24.400000000000013 342.30000000000007 24.500000000000014 342.30000000000007 24.600000000000012 C 339.1000000000001 26.700000000000014 335.6000000000001 28.50000000000001 332.4000000000001 31.000000000000014 C 334.4000000000001 27.400000000000013 336.0000000000001 23.400000000000013 336.0000000000001 19.400000000000013 C 336.60000000000014 19.500000000000014 337.2000000000001 19.400000000000013 337.9000000000001 19.200000000000014 C 341.30000000000007 17.800000000000015 340.9000000000001 12.500000000000014 340.30000000000007 9.700000000000014 C 339.6000000000001 6.500000000000013 338.1000000000001 2.2000000000000135 334.9000000000001 0.8000000000000131 C 331.5000000000001 -0.6999999999999869 329.5000000000001 4.500000000000013 329.2000000000001 6.900000000000013 C 328.6000000000001 11.600000000000012 330.7000000000001 18.500000000000014 334.9000000000001 21.100000000000012 L 335.0000000000001 21.100000000000012 C 334.10000000000014 26.70000000000001 330.8000000000001 31.70000000000001 327.7000000000001 36.500000000000014 C 327.3000000000001 35.000000000000014 326.6000000000001 33.600000000000016 326.4000000000001 32.100000000000016 C 326.2000000000001 30.900000000000016 326.30000000000007 29.600000000000016 326.4000000000001 28.300000000000015 C 326.80000000000007 28.300000000000015 327.2000000000001 28.300000000000015 327.6000000000001 28.200000000000014 C 327.80000000000007 28.100000000000012 327.9000000000001 28.000000000000014 327.9000000000001 27.800000000000015 C 328.1000000000001 27.700000000000014 328.4000000000001 27.500000000000014 328.5000000000001 27.300000000000015 C 329.10000000000014 26.500000000000014 329.3000000000001 25.300000000000015 329.10000000000014 24.200000000000014 C 329.10000000000014 23.400000000000013 328.90000000000015 22.600000000000012 328.60000000000014 21.900000000000013 C 328.3000000000001 21.30000000000001 327.8000000000001 20.900000000000013 327.20000000000016 20.700000000000014 L 327.10000000000014 20.600000000000012 L 327.10000000000014 20.600000000000012 C 327.20000000000016 20.50000000000001 327.10000000000014 20.200000000000014 326.90000000000015 20.200000000000014 C 325.10000000000014 20.300000000000015 323.50000000000017 22.900000000000013 323.3000000000001 24.500000000000014 C 323.10000000000014 26.000000000000014 323.90000000000015 27.400000000000013 325.2000000000001 28.000000000000014 C 325.3000000000001 28.000000000000014 325.3000000000001 28.000000000000014 325.4000000000001 28.100000000000016 C 325.50000000000006 28.200000000000017 325.7000000000001 28.200000000000017 325.80000000000007 28.300000000000015 C 325.30000000000007 31.500000000000014 325.20000000000005 35.20000000000002 327.1000000000001 37.500000000000014 C 327.00000000000006 37.70000000000002 326.80000000000007 38.000000000000014 326.7000000000001 38.20000000000002 C 321.7000000000001 46.100000000000016 315.2000000000001 52.80000000000002 308.4000000000001 59.20000000000002 C 308.1000000000001 59.100000000000016 307.80000000000007 59.100000000000016 307.6000000000001 59.000000000000014 C 307.4000000000001 59.000000000000014 307.30000000000007 59.20000000000002 307.4000000000001 59.40000000000001 C 307.5000000000001 59.500000000000014 307.7000000000001 59.600000000000016 307.80000000000007 59.70000000000001 C 307.70000000000005 59.80000000000001 307.50000000000006 60.00000000000001 307.4000000000001 60.10000000000001 C 302.7000000000001 64.60000000000001 298.0000000000001 68.9 293.30000000000007 73.2 C 297.50000000000006 68.9 300.30000000000007 63.6 302.30000000000007 57.800000000000004 L 302.4000000000001 57.7 C 302.6000000000001 57.900000000000006 302.80000000000007 57.900000000000006 303.0000000000001 57.800000000000004 C 309.8000000000001 50.6 311.9000000000001 41.10000000000001 312.5000000000001 31.500000000000004 C 312.8000000000001 26.400000000000006 312.60000000000014 21.200000000000003 311.7000000000001 16.1 C 310.8000000000001 10.3 306.8000000000001 6.000000000000002 305.6000000000001 0.40000000000000213 C 305.5 0 305 0 304.8 0.3 C 300 10 298.6 20.2 298.6 31 C 298.6 39.3 297.8 49.2 300.5 57.3 C 298.8 62.3 296.5 67.1 293.3 71.8 L 293.3 71.8 C 291.8 73.7 290.3 75.6 288.7 77.5 C 279.9 85.2 270.9 92.6 261.3 99.6 C 260.90000000000003 99.89999999999999 261.3 100.5 261.7 100.3 C 269.4 95.6 276.7 90.1 283.59999999999997 84.19999999999999 L 283.59999999999997 84.19999999999999 C 283.79999999999995 84.1 283.9 83.99999999999999 284.09999999999997 83.89999999999999 C 285.7 83.39999999999999 287.29999999999995 82.8 288.9 82.3 C 288.9 82.39999999999999 289 82.5 289.09999999999997 82.5 C 289.9 82.3 290.7 82.1 291.4 81.9 C 305 81.2 318.7 83.9 332.2 81.5 C 343.6 79.5 354.7 73.5 362.3 64.8 z M 325.1 56 C 325.70000000000005 56.2 326.20000000000005 56.6 326.1 57.3 C 325.70000000000005 58.8 323 60 321.6 59.5 C 321.5 59.5 321.40000000000003 59.4 321.3 59.3 C 322.90000000000003 59.4 324.2 58.5 325.1 57.099999999999994 C 325.3 56.699999999999996 325.1 56.3 324.70000000000005 56.199999999999996 C 324.8 56.2 324.9 56.1 325.1 56 z M 320.8 57.9 C 320.8 57.8 320.8 57.699999999999996 320.90000000000003 57.6 C 321.3 57.300000000000004 321.6 56.800000000000004 322.00000000000006 56.5 C 322.50000000000006 56.1 323.30000000000007 55.9 324.00000000000006 55.9 C 324.00000000000006 55.9 324.00000000000006 55.9 324.1000000000001 55.9 C 322.8 56.5 321.8 57.2 320.8 57.9 L 320.8 57.9 z M 348.8 49 C 349 48.7 349.1 48.4 349.2 48 C 349.3 48 349.3 48 349.3 48 C 349.7 48.1 349.90000000000003 47.7 349.8 47.4 C 350.8 48.6 349.1 50.3 348.1 50.699999999999996 C 347.3 51.099999999999994 346.40000000000003 51.099999999999994 345.5 50.9 C 346.9 50.8 348.1 50.1 348.8 49 z M 344.9 49 C 345.9 49.1 346.9 48.9 347.79999999999995 48.5 C 347.29999999999995 49.1 346.49999999999994 49.4 345.79999999999995 49.6 C 345.19999999999993 49.7 344.09999999999997 49.6 343.29999999999995 49.300000000000004 C 343.69999999999993 49.2 344.09999999999997 49.00000000000001 344.49999999999994 48.900000000000006 C 344.6 48.9 344.8 49 344.9 49 z M 346.3 46.2 C 346.6 46.2 347 46.2 347.40000000000003 46.300000000000004 C 345.8 46.7 344.40000000000003 47.6 343.00000000000006 48.6 C 343.1000000000001 48 343.40000000000003 47.4 343.90000000000003 46.800000000000004 L 343.90000000000003 46.7 C 344.6 46.3 345.6 46.2 346.3 46.2 z M 354 35.5 C 354.6 34.9 355.3 34.4 356.1 34.1 C 356.5 34 357 34 357.40000000000003 34.1 C 357.70000000000005 34.2 357.90000000000003 33.9 358.00000000000006 33.6 L 358.1000000000001 33.6 C 357.30000000000007 35.4 355.4000000000001 36.7 353.50000000000006 36.4 C 353.6 36 353.8 35.8 354 35.5 z M 352 40.7 C 350.6 40.7 349.7 40.300000000000004 349.3 39.7 C 349.90000000000003 39.900000000000006 350.6 40 351.3 40.1 C 351.6 40.300000000000004 352 40.5 352.3 40.7 C 352.2 40.7 352.1 40.7 352 40.7 z M 358.3 35.6 C 358.90000000000003 34.9 359.3 34 359.40000000000003 33.1 C 359.40000000000003 32.800000000000004 359.20000000000005 32.5 358.90000000000003 32.5 C 358.40000000000003 32.5 357.90000000000003 32.6 357.40000000000003 32.7 L 357.40000000000003 32.7 C 360.00000000000006 31.700000000000003 362.70000000000005 31.000000000000004 365.1 30.900000000000002 C 363.8 33.2 361.2 34.7 358.3 35.6 z M 361.4 36.3 C 362.79999999999995 35.599999999999994 364 34.699999999999996 365.09999999999997 33.699999999999996 C 364.79999999999995 34.199999999999996 364.4 34.699999999999996 363.99999999999994 35.099999999999994 C 362.9 35.7 362 36.1 361.4 36.3 z M 366.9 28 C 367.7 28.5 368.2 29.3 368.4 30.4 C 368.5 30.9 369.09999999999997 30.7 369.09999999999997 30.299999999999997 C 368.99999999999994 29.499999999999996 368.79999999999995 28.9 368.59999999999997 28.299999999999997 C 368.7 28.299999999999997 368.79999999999995 28.4 368.9 28.4 C 371.29999999999995 29.9 369.59999999999997 31.799999999999997 367.09999999999997 33.5 C 367.4 32.9 367.59999999999997 32.3 367.7 31.7 C 367.9 30.2 367.4 29 366.59999999999997 28.2 C 366.7 28 366.8 28 366.9 28 z M 364.4 28.3 C 364.79999999999995 28.5 365.09999999999997 28.7 365.4 29 C 363.5 29.1 361.4 29.5 359.29999999999995 30.1 C 361.1 29.4 362.8 28.7 364.4 28.3 z M 356.6 29.7 C 357.6 28.7 358.8 27.9 360.20000000000005 27.5 C 360.6 27.4 361.00000000000006 27.3 361.40000000000003 27.2 L 361.40000000000003 27.2 C 361.50000000000006 27.3 361.70000000000005 27.3 361.90000000000003 27.4 C 360.1 27.9 358.3 28.7 356.6 29.7 z M 343.8 33.8 C 344.1 33.5 343.5 33.099999999999994 343.3 33.4 C 343.1 33.6 342.90000000000003 33.8 342.8 34.1 C 342.7 33.5 343 32.9 343.6 32.5 C 343.90000000000003 32.4 344.20000000000005 32.3 344.5 32.4 C 345 32.6 345.4 33.199999999999996 345.2 33.699999999999996 C 345 34.3 344.09999999999997 34.49999999999999 343.4 34.49999999999999 C 343.5 34.3 343.6 34 343.8 33.8 z M 360.8 9.6 C 359.90000000000003 12.5 357.8 16 354.7 16.9 L 354.7 16.9 C 355.8 15.899999999999999 356.8 14.499999999999998 357.5 13.299999999999999 C 357.6 13.299999999999999 357.7 13.299999999999999 357.7 13.2 C 360.3 10.799999999999999 361.09999999999997 6.8999999999999995 360 3.5999999999999996 C 359.9 3.3 359.8 3.0999999999999996 359.6 2.8 C 361.4 4 361.3 7.7 360.8 9.6 z M 351.6 7.2 C 353.40000000000003 4.9 355.5 3.1000000000000005 357.1 2.6000000000000005 C 357.20000000000005 2.6000000000000005 357.20000000000005 2.6000000000000005 357.3 2.6000000000000005 C 358.1 2.9000000000000004 358.7 3.7000000000000006 358.90000000000003 5 C 359.1 6.1 359.1 7.3 358.90000000000003 8.4 C 358.70000000000005 6.7 357.70000000000005 5.4 355.6 5.4 C 354.1 5.5 352.8 6.2 351.6 7.2 z M 350.4 11.2 C 351.2 9.1 353.79999999999995 6.8999999999999995 356.09999999999997 6.999999999999999 C 357.29999999999995 7.099999999999999 357.59999999999997 7.8999999999999995 357.4 9 L 357.4 8.9 C 357.29999999999995 8.6 356.9 8.4 356.59999999999997 8.5 C 354.79999999999995 8.9 351.4 11.2 350.09999999999997 13.7 C 350.1 12.8 350.1 11.9 350.4 11.2 z M 348.5 13.6 C 348.6 15 349.3 16.2 350.3 17.1 C 350.1 17.400000000000002 350 17.700000000000003 349.8 18 C 348.5 16.9 348.2 15.3 348.5 13.6 z M 351.6 16.3 C 351.5 16.1 351.40000000000003 15.8 351.40000000000003 15.4 C 351.40000000000003 14.3 352.50000000000006 13.100000000000001 353.20000000000005 12.4 C 353.90000000000003 11.700000000000001 356.6 9.100000000000001 356.30000000000007 10.9 C 356.30000000000007 11.1 356.4000000000001 11.3 356.6000000000001 11.4 C 355.7000000000001 13.200000000000001 354.30000000000007 15.100000000000001 353.9000000000001 15.5 C 353.6000000000001 15.8 352.5000000000001 16.8 351.80000000000007 16.6 C 351.8 16.5 351.7 16.4 351.6 16.3 z M 338.7 16.7 C 338.4 17.3 338 17.8 337.7 18 C 339.09999999999997 15.7 339.5 12.8 339 10.2 C 339.5 12.3 339.7 14.7 338.7 16.7 z M 337.3 9.4 C 337.3 9.4 337.40000000000003 9.4 337.40000000000003 9.3 C 337.40000000000003 9.4 337.40000000000003 9.4 337.50000000000006 9.5 C 338.1000000000001 12.1 337.90000000000003 15 336.50000000000006 17.2 C 334.5 15.1 334.3 10.5 337.3 9.4 z M 330.8 10.8 C 330.40000000000003 8.700000000000001 330.7 1.200000000000001 334.5 2.4000000000000004 C 335.7 2.8000000000000003 336.6 4 337.3 5.4 C 336.3 3.9000000000000004 334.90000000000003 2.9000000000000004 333 4.2 C 331.2 5.4 330.6 8.2 330.8 11.100000000000001 C 330.8 11 330.8 10.9 330.8 10.8 z M 333.2 6.1 C 334.9 3.3 336.4 6.3999999999999995 337.09999999999997 8.399999999999999 C 336.99999999999994 8.399999999999999 336.99999999999994 8.399999999999999 336.9 8.399999999999999 C 333 8.7 333 13.599999999999998 334.5 16.799999999999997 C 334 16.199999999999996 333.5 15.399999999999997 333.2 14.799999999999997 C 332 12 331.5 8.8 333.2 6.1 z M 332.7 17.1 C 333.4 18.200000000000003 334.3 19 335.2 19.400000000000002 C 335.2 19.700000000000003 335.2 20.000000000000004 335.09999999999997 20.3 C 334.2 19.5 333.4 18.4 332.7 17.1 z M 326.7 27.2 C 326.8 26.8 326.8 26.3 326.9 25.9 C 327 25.599999999999998 326.5 25.4 326.4 25.7 C 326.4 25.9 326.29999999999995 26.099999999999998 326.29999999999995 26.3 C 326.29999999999995 26.2 326.29999999999995 26.2 326.29999999999995 26.1 C 326.19999999999993 25.200000000000003 326.59999999999997 24.3 327.19999999999993 23.6 C 327.29999999999995 23.5 327.29999999999995 23.5 327.29999999999995 23.400000000000002 C 327.4 23.400000000000002 327.49999999999994 23.6 327.69999999999993 23.8 C 328.0999999999999 24.7 328.0999999999999 25.900000000000002 327.5999999999999 26.7 C 327.3 27.1 327 27.2 326.7 27.2 z M 299.5 33.7 C 299.3 24.000000000000004 300.1 14.500000000000004 303.4 5.400000000000002 C 303.9 4.100000000000002 304.29999999999995 3.500000000000002 304.7 3.300000000000002 C 302.2 11.700000000000003 302.59999999999997 21.5 301.5 30.2 C 300.5 38.7 301.6 47.2 301.1 55.7 C 301 55.900000000000006 301 56.2 300.90000000000003 56.400000000000006 C 299.5 48.8 299.7 41.2 299.5 33.7 z M 305.2 3.6 C 305.9 6.800000000000001 306.59999999999997 10 307.09999999999997 13.1 C 305.49999999999994 26.299999999999997 305.29999999999995 39.3 302.29999999999995 51.5 C 302.4 45.4 301.9 39.3 302.19999999999993 33.2 C 302.49999999999994 28.000000000000004 303.3999999999999 22.800000000000004 303.8999999999999 17.6 C 304.3 12.9 304.1 8.3 305.2 3.6 z M 307.3 14.8 C 309.40000000000003 28.700000000000003 309.1 42.1 303.2 55.5 C 306.9 42.4 306.6 27.2 307.3 14.8 z M 306.4 4.4 C 307.2 5.9 307.9 8.3 308.5 9.4 C 311.2 14.5 311.5 20.700000000000003 311.6 26.299999999999997 C 311.8 36.699999999999996 310 46.4 304.20000000000005 54.9 C 311.9 39.9 310.6 20.3 306.4 4.4 z M 358.9 63.6 C 359.09999999999997 63.9 359.09999999999997 64.1 359.09999999999997 64.5 C 358.09999999999997 64.9 357.2 65.3 356.2 65.6 C 357.1 64.9 358 64.3 358.9 63.6 z M 350 64.7 C 348.6 64.7 347.3 64.8 345.9 64.9 C 349.7 64.10000000000001 353.9 62.900000000000006 357.79999999999995 63.400000000000006 C 356.19999999999993 64.60000000000001 354.59999999999997 65.60000000000001 352.9 66.5 C 349.79999999999995 67.2 346.59999999999997 67.6 343.29999999999995 68 C 335.59999999999997 68.9 327.99999999999994 70.6 320.4 71.8 C 317.7 72.2 315 72.7 312.29999999999995 73.2 C 317.49999999999994 71.5 322.79999999999995 69.9 328.29999999999995 68.60000000000001 C 330.09999999999997 68.2 331.9 67.80000000000001 333.69999999999993 67.4 C 339.0999999999999 66.7 344.5999999999999 66.10000000000001 350.0999999999999 65.2 C 350.3 65.2 350.3 64.6 350 64.7 z M 355.1 62.1 C 355.8 62.2 356.5 62.300000000000004 357 62.4 C 351.2 61.6 343.5 63.9 337.5 65.5 C 324.9 66.8 312.4 69.6 300.9 75 C 300.59999999999997 75.2 300.79999999999995 75.7 301.09999999999997 75.5 C 307.99999999999994 72.3 314.99999999999994 70.4 322.09999999999997 69.1 C 315.29999999999995 70.8 308.4 72.8 301.99999999999994 75.6 C 300.29999999999995 76.1 298.59999999999997 76.6 296.99999999999994 77.19999999999999 C 313.1 65.3 335.3 60.2 355.1 62.1 z M 296.2 79.5 C 294.8 79.7 293.3 80 291.8 80.3 C 293.2 79.7 294.5 79.2 295.90000000000003 78.7 C 295.8 78.9 296.00000000000006 79.10000000000001 296.20000000000005 79 C 298.20000000000005 78.2 300.30000000000007 77.4 302.30000000000007 76.7 C 310.00000000000006 74.60000000000001 317.9000000000001 73.2 325.9000000000001 71.9 C 332.6000000000001 70.80000000000001 340.1000000000001 70.4 347.30000000000007 69 C 341.00000000000006 71.5 334.20000000000005 72.7 327.20000000000005 73.4 C 316.80000000000007 74.5 306.50000000000006 76.9 296.40000000000003 79.60000000000001 C 296.5 79.5 296.4 79.5 296.2 79.5 z M 348.3 74.5 C 341.90000000000003 78.1 334.7 80.2 327.5 81.1 C 320.2 82.1 312.9 81.19999999999999 305.5 80.69999999999999 C 306.6 80.6 307.7 80.39999999999999 308.8 80.29999999999998 C 317.40000000000003 79.39999999999998 325.90000000000003 78.39999999999998 334.5 77.09999999999998 C 338.8 76.39999999999998 344.5 75.59999999999998 349.4 73.79999999999998 C 349 74.1 348.6 74.4 348.3 74.5 z M 329.7 76.8 C 322.7 78 315.59999999999997 78.6 308.59999999999997 79.5 C 306.2 79.8 303.7 80.2 301.29999999999995 80.5 C 299.59999999999997 80.4 297.9 80.5 296.09999999999997 80.5 L 296 80.5 C 295.9 80.5 295.8 80.5 295.7 80.5 C 307.2 77.6 318.7 75.1 330.4 74 C 338 73.2 345.5 71.5 352.09999999999997 68 C 354.4 67.4 356.59999999999997 66.7 358.7 65.8 C 358.5 66.2 358.2 66.7 357.8 67.2 C 351 74.3 339.1 75.3 329.7 76.8 z" stroke-linecap="round" />
</g>
		<g transform="matrix(1 0 0 1 -143.91 0.12)"  >
<path style="stroke: none; stroke-width: 1; stroke-dasharray: none; stroke-linecap: butt; stroke-dashoffset: 0; stroke-linejoin: miter; stroke-miterlimit: 4; fill: rgb(149,185,160); fill-rule: nonzero; opacity: 1;" vector-effect="non-scaling-stroke"  transform=" translate(-41.89, -50.45)" d="M 40.1 32.1 C 40 35.9 40.7 39.5 43.2 41.900000000000006 C 51.800000000000004 38.7 63.1 35.900000000000006 66.5 41.50000000000001 C 71.1 49.00000000000001 54.6 50.10000000000001 50 50.30000000000001 C 47.5 50.40000000000001 45.1 50.20000000000001 42.9 49.90000000000001 C 40.9 50.70000000000001 39 51.90000000000001 37 53.000000000000014 C 26.4 59.70000000000002 19.4 69.30000000000001 20 81.00000000000001 C 21.1 106.4 64.1 89.50000000000001 66.7 72.20000000000002 C 67.3 68.20000000000002 80.4 68.70000000000002 79.8 72.20000000000002 C 76.2 95.20000000000002 15.700000000000003 115.30000000000001 7.3999999999999915 85.90000000000002 C 2.5999999999999917 68.50000000000003 17.29999999999999 53.60000000000002 33.599999999999994 45.90000000000002 C 29.299999999999994 42.70000000000002 26.899999999999995 37.80000000000002 26.999999999999993 32.00000000000002 C 16 30.4 5.4 25.3 0.3 16.6 C -1.9 13 10.9 11.9 13 15.1 C 16.3 20.8 21.8 24 28.1 25.4 C 32 11.2 48.6 1.3999999999999986 64.9 0.3999999999999986 C 73.80000000000001 -0.2000000000000014 86.5 2.4999999999999987 83.2 12.499999999999998 C 79.2 24.5 55.9 30.9 40.1 32.1 z M 68.9 5.9 C 64.7 3.3000000000000003 52.2 11.2 49.900000000000006 13 C 45.60000000000001 16.5 42.400000000000006 20.9 41.00000000000001 26 C 42.00000000000001 25.9 42.800000000000004 25.9 43.800000000000004 25.7 C 47.8 25 80.6 13.6 68.9 5.9 z" stroke-linecap="round" />
</g>
		<g transform="matrix(1 0 0 1 -84.65 20.46)"  >
<path style="stroke: none; stroke-width: 1; stroke-dasharray: none; stroke-linecap: butt; stroke-dashoffset: 0; stroke-linejoin: miter; stroke-miterlimit: 4; fill: rgb(149,185,160); fill-rule: nonzero; opacity: 1;" vector-effect="non-scaling-stroke"  transform=" translate(-101.15, -70.8)" d="M 136.1 57.6 C 135.1 62.9 119.6 65.3 118.1 65.4 C 118 65.4 118 65.4 117.8 65.4 L 117.8 65.5 C 117.8 65.6 117.7 65.8 117.7 65.8 C 117.7 66.1 117.60000000000001 66.2 117.60000000000001 66.5 C 117.50000000000001 66.6 117.30000000000001 66.9 117.30000000000001 67.1 C 112 81.3 102 93.7 88.7 98.9 C 73.5 105 65.80000000000001 91.9 66.1 80.5 C 66.39999999999999 67.9 68.6 55.4 72.1 44 C 73.19999999999999 40.2 86.3 41.5 85.1 45.5 C 83.3 51.2 82 57.1 81.1 63.1 C 80.1 68.7 76.1 92.4 85.1 90.4 C 88.89999999999999 87.5 92.39999999999999 84 95.39999999999999 80.4 C 99.99999999999999 75 103.49999999999999 68.7 105.6 62.00000000000001 C 98.8 57.800000000000004 94.39999999999999 50.30000000000001 100.69999999999999 44.2 C 102.19999999999999 42.7 104.89999999999999 41.6 107.69999999999999 41.300000000000004 C 112.89999999999999 40.6 118.89999999999999 42.1 120.69999999999999 47.6 C 120.79999999999998 48.2 120.99999999999999 48.7 121.1 49.4 C 121.5 52 121.1 55.1 120.39999999999999 58 C 126.99999999999999 56.3 129.6 53.8 129.89999999999998 53.7 C 136.6 48.6 136.4 53.5 136.1 57.6 z" stroke-linecap="round" />
</g>
		<g transform="matrix(1 0 0 1 -30.22 21.21)"  >
<path style="stroke: none; stroke-width: 1; stroke-dasharray: none; stroke-linecap: butt; stroke-dashoffset: 0; stroke-linejoin: miter; stroke-miterlimit: 4; fill: rgb(149,185,160); fill-rule: nonzero; opacity: 1;" vector-effect="non-scaling-stroke"  transform=" translate(-155.58, -71.54)" d="M 192.6 82.3 C 188 92.89999999999999 168.5 110.9 157.3 92.2 C 156.5 90.8 155.9 89.4 155.60000000000002 87.9 C 148.10000000000002 96.5 138.40000000000003 102.7 127.60000000000002 99.5 C 112.70000000000002 95.2 119.70000000000002 76.9 124.10000000000002 67.1 C 131.10000000000002 51.89999999999999 143.20000000000002 40.49999999999999 160.40000000000003 43.099999999999994 C 161.20000000000005 43.199999999999996 162.10000000000002 43.39999999999999 162.80000000000004 43.49999999999999 C 163.20000000000005 43.599999999999994 163.50000000000003 43.79999999999999 163.90000000000003 43.89999999999999 C 165.40000000000003 44.49999999999999 166.60000000000002 45.19999999999999 167.50000000000003 46.099999999999994 C 171.50000000000003 45.39999999999999 178.00000000000003 46.89999999999999 177.70000000000002 47.599999999999994 C 173.9 56.39999999999999 170.70000000000002 65.69999999999999 169.20000000000002 75.19999999999999 C 168.20000000000002 81.29999999999998 168.20000000000002 86.49999999999999 170.9 91.79999999999998 C 171.20000000000002 91.69999999999999 171.3 91.49999999999999 171.70000000000002 91.09999999999998 C 172.8 90.29999999999998 173.9 89.29999999999998 174.9 88.29999999999998 C 176.70000000000002 86.49999999999999 178.4 84.39999999999998 179.5 82.19999999999999 C 180.8 78.8 193 81.2 192.6 82.3 z M 156.6 50 C 156.5 49.6 156.2 49.3 155.9 49.2 C 146.3 47.1 137.8 66.1 135.1 72.9 C 133.6 77.10000000000001 131.9 81.5 131.6 86.10000000000001 C 131.5 87.9 131.29999999999998 89.7 132.2 91.4 C 132.5 92 132.89999999999998 92.7 133.6 93.2 C 134.2 93.2 134.29999999999998 93.10000000000001 134.7 92.9 C 136.1 92.30000000000001 137.2 91.2 138.5 90.30000000000001 C 141.4 87.80000000000001 143.9 84.70000000000002 146.2 81.70000000000002 C 150.89999999999998 75.10000000000002 155.79999999999998 67.30000000000001 157.5 59.40000000000002 C 158.1 55.8 158 53.2 156.6 50 z M 155.6 49 C 155.6 49 155.7 49 155.9 49.1 C 155.7 49 155.6 49 155.6 49 z" stroke-linecap="round" />
</g>
		<g transform="matrix(1 0 0 1 26.56 17.18)"  >
<path style="stroke: none; stroke-width: 1; stroke-dasharray: none; stroke-linecap: butt; stroke-dashoffset: 0; stroke-linejoin: miter; stroke-miterlimit: 4; fill: rgb(149,185,160); fill-rule: nonzero; opacity: 1;" vector-effect="non-scaling-stroke"  transform=" translate(-212.36, -67.51)" d="M 244.2 86.5 C 236 96.7 211.6 110.3 206.39999999999998 89.4 C 204.29999999999998 80.9 210.39999999999998 65.60000000000001 215.99999999999997 59.300000000000004 C 216.09999999999997 59.00000000000001 216.09999999999997 58.7 216.29999999999998 58.50000000000001 C 214.2 58.900000000000006 211.99999999999997 59.20000000000001 210.29999999999998 59.300000000000004 C 208.89999999999998 59.400000000000006 207.49999999999997 59.400000000000006 206.1 59.400000000000006 C 205.5 60.50000000000001 205.1 61.800000000000004 204.7 62.60000000000001 C 198.79999999999998 73.10000000000001 198.79999999999998 73.10000000000001 192.79999999999998 82.4 C 190.2 86.60000000000001 177.29999999999998 84.60000000000001 180.1 80.4 C 187.5 69 188 67.4 193.79999999999998 55.60000000000001 C 187.7 51.400000000000006 184.7 43.900000000000006 192.1 37.80000000000001 C 197.1 33.500000000000014 209.79999999999998 32.80000000000001 211.29999999999998 41.000000000000014 C 211.89999999999998 43.90000000000001 210.7 47.80000000000001 209.29999999999998 51.600000000000016 C 210.79999999999998 51.500000000000014 212.49999999999997 50.90000000000001 213.99999999999997 50.600000000000016 C 216.89999999999998 50.000000000000014 219.99999999999997 49.500000000000014 222.89999999999998 49.90000000000001 C 236.79999999999998 52.100000000000016 225.49999999999997 66.20000000000002 222.29999999999998 73.50000000000001 C 220.2 78.10000000000001 216.2 94.00000000000001 222.6 91.80000000000001 C 226.4 90.50000000000001 230.1 85.80000000000001 232.6 82.70000000000002 C 235.8 79.1 248.3 81.5 244.2 86.5 z" stroke-linecap="round" />
</g>
		<g transform="matrix(1 0 0 1 84.78 21.21)"  >
<path style="stroke: none; stroke-width: 1; stroke-dasharray: none; stroke-linecap: butt; stroke-dashoffset: 0; stroke-linejoin: miter; stroke-miterlimit: 4; fill: rgb(149,185,160); fill-rule: nonzero; opacity: 1;" vector-effect="non-scaling-stroke"  transform=" translate(-270.58, -71.54)" d="M 307.6 82.3 C 303 92.89999999999999 283.5 110.9 272.3 92.2 C 271.5 90.8 270.90000000000003 89.4 270.6 87.9 C 263.1 96.5 253.40000000000003 102.7 242.60000000000002 99.5 C 227.70000000000002 95.2 234.70000000000002 76.9 239.10000000000002 67.1 C 246.10000000000002 51.89999999999999 258.20000000000005 40.49999999999999 275.40000000000003 43.099999999999994 C 276.20000000000005 43.199999999999996 277.1 43.39999999999999 277.8 43.49999999999999 C 278.2 43.599999999999994 278.5 43.79999999999999 278.90000000000003 43.89999999999999 C 280.40000000000003 44.49999999999999 281.50000000000006 45.19999999999999 282.50000000000006 46.099999999999994 C 286.50000000000006 45.39999999999999 293.00000000000006 46.89999999999999 292.70000000000005 47.599999999999994 C 288.90000000000003 56.39999999999999 285.70000000000005 65.69999999999999 284.20000000000005 75.19999999999999 C 283.20000000000005 81.29999999999998 283.20000000000005 86.49999999999999 285.90000000000003 91.79999999999998 C 286.20000000000005 91.69999999999999 286.3 91.49999999999999 286.70000000000005 91.09999999999998 C 287.80000000000007 90.29999999999998 288.90000000000003 89.29999999999998 289.90000000000003 88.29999999999998 C 291.70000000000005 86.49999999999999 293.40000000000003 84.39999999999998 294.50000000000006 82.19999999999999 C 295.9 78.8 308 81.2 307.6 82.3 z M 271.6 50 C 271.5 49.6 271.20000000000005 49.3 270.90000000000003 49.2 C 261.3 47.1 252.80000000000004 66.1 250.10000000000002 72.9 C 248.60000000000002 77.10000000000001 246.90000000000003 81.5 246.60000000000002 86.10000000000001 C 246.50000000000003 87.9 246.3 89.7 247.20000000000002 91.4 C 247.50000000000003 92 247.9 92.7 248.60000000000002 93.2 C 249.20000000000002 93.2 249.3 93.10000000000001 249.70000000000002 92.9 C 251.10000000000002 92.30000000000001 252.20000000000002 91.2 253.50000000000003 90.30000000000001 C 256.40000000000003 87.80000000000001 258.90000000000003 84.70000000000002 261.20000000000005 81.70000000000002 C 265.90000000000003 75.10000000000002 270.80000000000007 67.30000000000001 272.50000000000006 59.40000000000002 C 273.2 55.8 273 53.2 271.6 50 z M 270.7 49 C 270.7 49 270.8 49 271 49.1 C 270.8 49 270.7 49 270.7 49 z" stroke-linecap="round" />
</g>
</g>
</g>
</svg>